<?xml version="1.0" encoding="UTF-8" standalone="no"?><svg xmlns="http://www.w3.org/2000/svg" xmlns:xlink="http://www.w3.org/1999/xlink" contentScriptType="application/ecmascript" contentStyleType="text/css" height="1144px" preserveAspectRatio="none" style="width:231px;height:1144px;" version="1.1" viewBox="0 0 231 1144" width="231px" zoomAndPan="magnify"><defs><filter height="300%" id="ft1iu1lh1e2fu" width="300%" x="-1" y="-1"><feGaussianBlur result="blurOut" stdDeviation="2.0"/><feColorMatrix in="blurOut" result="blurOut2" type="matrix" values="0 0 0 0 0 0 0 0 0 0 0 0 0 0 0 0 0 0 .4 0"/><feOffset dx="4.0" dy="4.0" in="blurOut2" result="blurOut3"/><feBlend in="SourceGraphic" in2="blurOut3" mode="normal"/></filter></defs><g><!--MD5=[37d9809cb88c3d7038c4b5df64e24c2e]
class Semester--><rect fill="#FEFECE" filter="url(#ft1iu1lh1e2fu)" height="257.7464" id="Semester" style="stroke: #A80036; stroke-width: 1.5;" width="190" x="30" y="367"/><ellipse cx="93.75" cy="383" fill="#ADD1B2" rx="11" ry="11" style="stroke: #A80036; stroke-width: 1.0;"/><path d="M96.7188,388.6406 Q96.1406,388.9375 95.5,389.0781 Q94.8594,389.2344 94.1563,389.2344 Q91.6563,389.2344 90.3281,387.5938 Q89.0156,385.9375 89.0156,382.8125 Q89.0156,379.6875 90.3281,378.0313 Q91.6563,376.375 94.1563,376.375 Q94.8594,376.375 95.5,376.5313 Q96.1563,376.6875 96.7188,376.9844 L96.7188,379.7031 Q96.0938,379.125 95.5,378.8594 Q94.9063,378.5781 94.2813,378.5781 Q92.9375,378.5781 92.25,379.6563 Q91.5625,380.7188 91.5625,382.8125 Q91.5625,384.9063 92.25,385.9844 Q92.9375,387.0469 94.2813,387.0469 Q94.9063,387.0469 95.5,386.7813 Q96.0938,386.5 96.7188,385.9219 L96.7188,388.6406 Z "/><text fill="#000000" font-family="sans-serif" font-size="12" lengthAdjust="spacingAndGlyphs" textLength="54" x="114.25" y="387.656">Semester</text><line style="stroke: #A80036; stroke-width: 1.5;" x1="31" x2="219" y1="399" y2="399"/><rect fill="none" height="6" style="stroke: #C82930; stroke-width: 1.0;" width="6" x="38" y="407"/><text fill="#000000" font-family="sans-serif" font-size="11" lengthAdjust="spacingAndGlyphs" textLength="51" x="50" y="414.7589">_year : int</text><rect fill="none" height="6" style="stroke: #C82930; stroke-width: 1.0;" width="6" x="38" y="421.9819"/><text fill="#000000" font-family="sans-serif" font-size="11" lengthAdjust="spacingAndGlyphs" textLength="64" x="50" y="429.7408">_season : str</text><rect fill="none" height="6" style="stroke: #C82930; stroke-width: 1.0;" width="6" x="38" y="436.9638"/><text fill="#000000" font-family="sans-serif" font-size="11" lengthAdjust="spacingAndGlyphs" textLength="114" x="50" y="444.7227">_courses : list[Course]</text><line style="stroke: #A80036; stroke-width: 1.5;" x1="31" x2="219" y1="451.9457" y2="451.9457"/><ellipse cx="41" cy="462.9457" fill="#84BE84" rx="3" ry="3" style="stroke: #038048; stroke-width: 1.0;"/><text fill="#000000" font-family="sans-serif" font-size="11" lengthAdjust="spacingAndGlyphs" textLength="52" x="50" y="467.7046">year() : int</text><ellipse cx="41" cy="477.9276" fill="#84BE84" rx="3" ry="3" style="stroke: #038048; stroke-width: 1.0;"/><text fill="#000000" font-family="sans-serif" font-size="11" lengthAdjust="spacingAndGlyphs" textLength="64" x="50" y="482.6865">year(val: int)</text><ellipse cx="41" cy="492.9094" fill="#84BE84" rx="3" ry="3" style="stroke: #038048; stroke-width: 1.0;"/><text fill="#000000" font-family="sans-serif" font-size="11" lengthAdjust="spacingAndGlyphs" textLength="65" x="50" y="497.6684">season() : str</text><ellipse cx="41" cy="507.8913" fill="#84BE84" rx="3" ry="3" style="stroke: #038048; stroke-width: 1.0;"/><text fill="#000000" font-family="sans-serif" font-size="11" lengthAdjust="spacingAndGlyphs" textLength="77" x="50" y="512.6502">season(val: str)</text><ellipse cx="41" cy="522.8732" fill="#84BE84" rx="3" ry="3" style="stroke: #038048; stroke-width: 1.0;"/><text fill="#000000" font-family="sans-serif" font-size="11" lengthAdjust="spacingAndGlyphs" textLength="115" x="50" y="527.6321">courses() : list[Course]</text><ellipse cx="41" cy="537.8551" fill="#84BE84" rx="3" ry="3" style="stroke: #038048; stroke-width: 1.0;"/><text fill="#000000" font-family="sans-serif" font-size="11" lengthAdjust="spacingAndGlyphs" textLength="127" x="50" y="542.614">courses(val: list[Course])</text><ellipse cx="41" cy="552.837" fill="#84BE84" rx="3" ry="3" style="stroke: #038048; stroke-width: 1.0;"/><text fill="#000000" font-family="sans-serif" font-size="11" lengthAdjust="spacingAndGlyphs" textLength="114" x="50" y="557.5959">print_courses() : None</text><ellipse cx="41" cy="567.8189" fill="#84BE84" rx="3" ry="3" style="stroke: #038048; stroke-width: 1.0;"/><text fill="#000000" font-family="sans-serif" font-size="11" lengthAdjust="spacingAndGlyphs" textLength="144" x="50" y="572.5778">add_course(course: Course)</text><ellipse cx="41" cy="582.8008" fill="#84BE84" rx="3" ry="3" style="stroke: #038048; stroke-width: 1.0;"/><text fill="#000000" font-family="sans-serif" font-size="11" lengthAdjust="spacingAndGlyphs" textLength="164" x="50" y="587.5597">remove_course(course: Course)</text><ellipse cx="41" cy="597.7827" fill="#84BE84" rx="3" ry="3" style="stroke: #038048; stroke-width: 1.0;"/><text fill="#000000" font-family="sans-serif" font-size="11" lengthAdjust="spacingAndGlyphs" textLength="113" x="50" y="602.5416">clear_courses() : None</text><text fill="#000000" font-family="sans-serif" font-size="11" lengthAdjust="spacingAndGlyphs" textLength="63" x="50" y="617.5235">__str__() : str</text><!--MD5=[4066b0363c5a91ff3b6e03e0428953a9]
class Course--><rect fill="#FEFECE" filter="url(#ft1iu1lh1e2fu)" height="197.8189" id="Course" style="stroke: #A80036; stroke-width: 1.5;" width="112" x="6" y="704"/><ellipse cx="39" cy="720" fill="#ADD1B2" rx="11" ry="11" style="stroke: #A80036; stroke-width: 1.0;"/><path d="M41.9688,725.6406 Q41.3906,725.9375 40.75,726.0781 Q40.1094,726.2344 39.4063,726.2344 Q36.9063,726.2344 35.5781,724.5938 Q34.2656,722.9375 34.2656,719.8125 Q34.2656,716.6875 35.5781,715.0313 Q36.9063,713.375 39.4063,713.375 Q40.1094,713.375 40.75,713.5313 Q41.4063,713.6875 41.9688,713.9844 L41.9688,716.7031 Q41.3438,716.125 40.75,715.8594 Q40.1563,715.5781 39.5313,715.5781 Q38.1875,715.5781 37.5,716.6563 Q36.8125,717.7188 36.8125,719.8125 Q36.8125,721.9063 37.5,722.9844 Q38.1875,724.0469 39.5313,724.0469 Q40.1563,724.0469 40.75,723.7813 Q41.3438,723.5 41.9688,722.9219 L41.9688,725.6406 Z "/><text fill="#000000" font-family="sans-serif" font-size="12" lengthAdjust="spacingAndGlyphs" textLength="40" x="57" y="724.656">Course</text><line style="stroke: #A80036; stroke-width: 1.5;" x1="7" x2="117" y1="736" y2="736"/><rect fill="none" height="6" style="stroke: #C82930; stroke-width: 1.0;" width="6" x="14" y="744"/><text fill="#000000" font-family="sans-serif" font-size="11" lengthAdjust="spacingAndGlyphs" textLength="57" x="26" y="751.7589">_name : str</text><rect fill="none" height="6" style="stroke: #C82930; stroke-width: 1.0;" width="6" x="14" y="758.9819"/><text fill="#000000" font-family="sans-serif" font-size="11" lengthAdjust="spacingAndGlyphs" textLength="70" x="26" y="766.7408">_number : int</text><rect fill="none" height="6" style="stroke: #C82930; stroke-width: 1.0;" width="6" x="14" y="773.9638"/><text fill="#000000" font-family="sans-serif" font-size="11" lengthAdjust="spacingAndGlyphs" textLength="57" x="26" y="781.7227">_dept : Tag</text><line style="stroke: #A80036; stroke-width: 1.5;" x1="7" x2="117" y1="788.9457" y2="788.9457"/><ellipse cx="17" cy="799.9457" fill="#84BE84" rx="3" ry="3" style="stroke: #038048; stroke-width: 1.0;"/><text fill="#000000" font-family="sans-serif" font-size="11" lengthAdjust="spacingAndGlyphs" textLength="58" x="26" y="804.7046">name() : str</text><ellipse cx="17" cy="814.9276" fill="#84BE84" rx="3" ry="3" style="stroke: #038048; stroke-width: 1.0;"/><text fill="#000000" font-family="sans-serif" font-size="11" lengthAdjust="spacingAndGlyphs" textLength="73" x="26" y="819.6865">name(val : str)</text><ellipse cx="17" cy="829.9094" fill="#84BE84" rx="3" ry="3" style="stroke: #038048; stroke-width: 1.0;"/><text fill="#000000" font-family="sans-serif" font-size="11" lengthAdjust="spacingAndGlyphs" textLength="71" x="26" y="834.6684">number() : int</text><ellipse cx="17" cy="844.8913" fill="#84BE84" rx="3" ry="3" style="stroke: #038048; stroke-width: 1.0;"/><text fill="#000000" font-family="sans-serif" font-size="11" lengthAdjust="spacingAndGlyphs" textLength="86" x="26" y="849.6502">number(val : int)</text><ellipse cx="17" cy="859.8732" fill="#84BE84" rx="3" ry="3" style="stroke: #038048; stroke-width: 1.0;"/><text fill="#000000" font-family="sans-serif" font-size="11" lengthAdjust="spacingAndGlyphs" textLength="58" x="26" y="864.6321">dept() : Tag</text><ellipse cx="17" cy="874.8551" fill="#84BE84" rx="3" ry="3" style="stroke: #038048; stroke-width: 1.0;"/><text fill="#000000" font-family="sans-serif" font-size="11" lengthAdjust="spacingAndGlyphs" textLength="73" x="26" y="879.614">dept(val : Tag)</text><text fill="#000000" font-family="sans-serif" font-size="11" lengthAdjust="spacingAndGlyphs" textLength="63" x="26" y="894.5959">__str__() : str</text><!--MD5=[39d6d2ea03de602dbf4d534e70c872a9]
class Tag--><rect fill="#FEFECE" filter="url(#ft1iu1lh1e2fu)" height="152.8732" id="Tag" style="stroke: #A80036; stroke-width: 1.5;" width="129" x="60.5" y="981"/><ellipse cx="110.25" cy="997" fill="#ADD1B2" rx="11" ry="11" style="stroke: #A80036; stroke-width: 1.0;"/><path d="M113.2188,1002.6406 Q112.6406,1002.9375 112,1003.0781 Q111.3594,1003.2344 110.6563,1003.2344 Q108.1563,1003.2344 106.8281,1001.5938 Q105.5156,999.9375 105.5156,996.8125 Q105.5156,993.6875 106.8281,992.0313 Q108.1563,990.375 110.6563,990.375 Q111.3594,990.375 112,990.5313 Q112.6563,990.6875 113.2188,990.9844 L113.2188,993.7031 Q112.5938,993.125 112,992.8594 Q111.4063,992.5781 110.7813,992.5781 Q109.4375,992.5781 108.75,993.6563 Q108.0625,994.7188 108.0625,996.8125 Q108.0625,998.9063 108.75,999.9844 Q109.4375,1001.0469 110.7813,1001.0469 Q111.4063,1001.0469 112,1000.7813 Q112.5938,1000.5 113.2188,999.9219 L113.2188,1002.6406 Z "/><text fill="#000000" font-family="sans-serif" font-size="12" lengthAdjust="spacingAndGlyphs" textLength="21" x="130.75" y="1001.656">Tag</text><line style="stroke: #A80036; stroke-width: 1.5;" x1="61.5" x2="188.5" y1="1013" y2="1013"/><rect fill="none" height="6" style="stroke: #C82930; stroke-width: 1.0;" width="6" x="68.5" y="1021"/><text fill="#000000" font-family="sans-serif" font-size="11" lengthAdjust="spacingAndGlyphs" textLength="57" x="80.5" y="1028.7589">_name : str</text><rect fill="none" height="6" style="stroke: #C82930; stroke-width: 1.0;" width="6" x="68.5" y="1035.9819"/><text fill="#000000" font-family="sans-serif" font-size="11" lengthAdjust="spacingAndGlyphs" textLength="87" x="80.5" y="1043.7408">_description : str</text><line style="stroke: #A80036; stroke-width: 1.5;" x1="61.5" x2="188.5" y1="1050.9638" y2="1050.9638"/><ellipse cx="71.5" cy="1061.9638" fill="#84BE84" rx="3" ry="3" style="stroke: #038048; stroke-width: 1.0;"/><text fill="#000000" font-family="sans-serif" font-size="11" lengthAdjust="spacingAndGlyphs" textLength="58" x="80.5" y="1066.7227">name() : str</text><ellipse cx="71.5" cy="1076.9457" fill="#84BE84" rx="3" ry="3" style="stroke: #038048; stroke-width: 1.0;"/><text fill="#000000" font-family="sans-serif" font-size="11" lengthAdjust="spacingAndGlyphs" textLength="73" x="80.5" y="1081.7046">name(val : str)</text><ellipse cx="71.5" cy="1091.9276" fill="#84BE84" rx="3" ry="3" style="stroke: #038048; stroke-width: 1.0;"/><text fill="#000000" font-family="sans-serif" font-size="11" lengthAdjust="spacingAndGlyphs" textLength="88" x="80.5" y="1096.6865">description() : str</text><ellipse cx="71.5" cy="1106.9094" fill="#84BE84" rx="3" ry="3" style="stroke: #038048; stroke-width: 1.0;"/><text fill="#000000" font-family="sans-serif" font-size="11" lengthAdjust="spacingAndGlyphs" textLength="103" x="80.5" y="1111.6684">description(val : str)</text><text fill="#000000" font-family="sans-serif" font-size="11" lengthAdjust="spacingAndGlyphs" textLength="63" x="80.5" y="1126.6502">__str__() : str</text><!--MD5=[1f9aa183c03a5a4b2c7a355206fc0cf9]
class GUI--><rect fill="#FEFECE" filter="url(#ft1iu1lh1e2fu)" height="77.9638" id="GUI" style="stroke: #A80036; stroke-width: 1.5;" width="71" x="89.5" y="8"/><ellipse cx="112.15" cy="24" fill="#ADD1B2" rx="11" ry="11" style="stroke: #A80036; stroke-width: 1.0;"/><path d="M115.1188,29.6406 Q114.5406,29.9375 113.9,30.0781 Q113.2594,30.2344 112.5563,30.2344 Q110.0563,30.2344 108.7281,28.5938 Q107.4156,26.9375 107.4156,23.8125 Q107.4156,20.6875 108.7281,19.0313 Q110.0563,17.375 112.5563,17.375 Q113.2594,17.375 113.9,17.5313 Q114.5563,17.6875 115.1188,17.9844 L115.1188,20.7031 Q114.4938,20.125 113.9,19.8594 Q113.3063,19.5781 112.6813,19.5781 Q111.3375,19.5781 110.65,20.6563 Q109.9625,21.7188 109.9625,23.8125 Q109.9625,25.9063 110.65,26.9844 Q111.3375,28.0469 112.6813,28.0469 Q113.3063,28.0469 113.9,27.7813 Q114.4938,27.5 115.1188,26.9219 L115.1188,29.6406 Z "/><text fill="#000000" font-family="sans-serif" font-size="12" lengthAdjust="spacingAndGlyphs" textLength="22" x="127.85" y="28.656">GUI</text><line style="stroke: #A80036; stroke-width: 1.5;" x1="90.5" x2="159.5" y1="40" y2="40"/><rect fill="none" height="6" style="stroke: #C82930; stroke-width: 1.0;" width="6" x="97.5" y="48"/><text fill="#000000" font-family="sans-serif" font-size="11" lengthAdjust="spacingAndGlyphs" textLength="44" x="109.5" y="55.7589">_file : str</text><rect fill="none" height="6" style="stroke: #C82930; stroke-width: 1.0;" width="6" x="97.5" y="62.9819"/><text fill="#000000" font-family="sans-serif" font-size="11" lengthAdjust="spacingAndGlyphs" textLength="45" x="109.5" y="70.7408">_tag : str</text><line style="stroke: #A80036; stroke-width: 1.5;" x1="90.5" x2="159.5" y1="77.9638" y2="77.9638"/><!--MD5=[2e57ba615b14cbd101221704118356f5]
class GuiEventHandler--><rect fill="#FEFECE" filter="url(#ft1iu1lh1e2fu)" height="122.9094" id="GuiEventHandler" style="stroke: #A80036; stroke-width: 1.5;" width="165" x="42.5" y="165"/><ellipse cx="74.6" cy="181" fill="#ADD1B2" rx="11" ry="11" style="stroke: #A80036; stroke-width: 1.0;"/><path d="M77.5688,186.6406 Q76.9906,186.9375 76.35,187.0781 Q75.7094,187.2344 75.0063,187.2344 Q72.5063,187.2344 71.1781,185.5938 Q69.8656,183.9375 69.8656,180.8125 Q69.8656,177.6875 71.1781,176.0313 Q72.5063,174.375 75.0063,174.375 Q75.7094,174.375 76.35,174.5313 Q77.0063,174.6875 77.5688,174.9844 L77.5688,177.7031 Q76.9438,177.125 76.35,176.8594 Q75.7563,176.5781 75.1313,176.5781 Q73.7875,176.5781 73.1,177.6563 Q72.4125,178.7188 72.4125,180.8125 Q72.4125,182.9063 73.1,183.9844 Q73.7875,185.0469 75.1313,185.0469 Q75.7563,185.0469 76.35,184.7813 Q76.9438,184.5 77.5688,183.9219 L77.5688,186.6406 Z "/><text fill="#000000" font-family="sans-serif" font-size="12" lengthAdjust="spacingAndGlyphs" textLength="95" x="92.4" y="185.656">GuiEventHandler</text><line style="stroke: #A80036; stroke-width: 1.5;" x1="43.5" x2="206.5" y1="197" y2="197"/><line style="stroke: #A80036; stroke-width: 1.5;" x1="43.5" x2="206.5" y1="205" y2="205"/><rect fill="#F24D5C" height="6" style="stroke: #C82930; stroke-width: 1.0;" width="6" x="50.5" y="213"/><text fill="#000000" font-family="sans-serif" font-size="11" lengthAdjust="spacingAndGlyphs" textLength="66" x="62.5" y="220.7589">pickfile() : str</text><rect fill="#F24D5C" height="6" style="stroke: #C82930; stroke-width: 1.0;" width="6" x="50.5" y="227.9819"/><text fill="#000000" font-family="sans-serif" font-size="11" lengthAdjust="spacingAndGlyphs" textLength="116" x="62.5" y="235.7408">pickpath(Tag : str) : str</text><rect fill="#F24D5C" height="6" style="stroke: #C82930; stroke-width: 1.0;" width="6" x="50.5" y="242.9638"/><text fill="#000000" font-family="sans-serif" font-size="11" lengthAdjust="spacingAndGlyphs" textLength="139" x="62.5" y="250.7227">savefileas(file : str, dir : str)</text><ellipse cx="53.5" cy="260.9457" fill="#84BE84" rx="3" ry="3" style="stroke: #038048; stroke-width: 1.0;"/><text fill="#000000" font-family="sans-serif" font-size="11" lengthAdjust="spacingAndGlyphs" textLength="104" x="62.5" y="265.7046">getTag(file : str) : str</text><ellipse cx="53.5" cy="275.9276" fill="#84BE84" rx="3" ry="3" style="stroke: #038048; stroke-width: 1.0;"/><text fill="#000000" font-family="sans-serif" font-size="11" lengthAdjust="spacingAndGlyphs" textLength="82" x="62.5" y="280.6865">setTag(Tag : str)</text><!--MD5=[b0bb1a4a26535e36cbd0a997fe233442]
link GUI to GuiEventHandler--><path d="M125,86.08 C125,107.48 125,134.78 125,159.55 " fill="none" id="GUI-&gt;GuiEventHandler" style="stroke: #A80036; stroke-width: 1.0;"/><polygon fill="#A80036" points="125,164.79,129,155.79,125,159.79,121,155.79,125,164.79" style="stroke: #A80036; stroke-width: 1.0;"/><text fill="#000000" font-family="sans-serif" font-size="13" lengthAdjust="spacingAndGlyphs" textLength="27" x="126" y="130.897">uses</text><!--MD5=[a9fdc3e220d6d1851a5115bfb55e68cb]
link GuiEventHandler to Semester--><path d="M125,288.2 C125,310.17 125,335.92 125,361.66 " fill="none" id="GuiEventHandler-&gt;Semester" style="stroke: #A80036; stroke-width: 1.0;"/><polygon fill="#A80036" points="125,366.81,129,357.81,125,361.81,121,357.81,125,366.81" style="stroke: #A80036; stroke-width: 1.0;"/><text fill="#000000" font-family="sans-serif" font-size="13" lengthAdjust="spacingAndGlyphs" textLength="27" x="126" y="332.897">uses</text><!--MD5=[d1adcb7189877e1ed669743a5e0c0d0d]
link Semester to Course--><path d="M98.56,625.02 C93.46,649.68 88.19,675.21 83.29,698.95 " fill="none" id="Semester-&gt;Course" style="stroke: #A80036; stroke-width: 1.0;"/><polygon fill="#A80036" points="82.25,703.99,87.9689,695.9716,83.2498,699.091,80.1304,694.3719,82.25,703.99" style="stroke: #A80036; stroke-width: 1.0;"/><text fill="#000000" font-family="sans-serif" font-size="13" lengthAdjust="spacingAndGlyphs" textLength="27" x="93" y="669.897">uses</text><!--MD5=[a188634d979a0b15cba78deaa1296187]
link Semester to Tag--><path d="M132.56,625.24 C136.76,716.2 140.19,841.14 135,951 C134.62,958.99 134.08,967.31 133.45,975.61 " fill="none" id="Semester-&gt;Tag" style="stroke: #A80036; stroke-width: 1.0;"/><polygon fill="#A80036" points="133.05,980.78,137.7323,972.1153,133.4357,975.7949,129.7561,971.4983,133.05,980.78" style="stroke: #A80036; stroke-width: 1.0;"/><text fill="#000000" font-family="sans-serif" font-size="13" lengthAdjust="spacingAndGlyphs" textLength="27" x="138" y="808.397">uses</text><!--MD5=[745980d044eb8511e9cf45b466ca37b4]
link Course to Tag--><path d="M86.54,902.35 C92.6,926.65 99.03,952.41 104.86,975.76 " fill="none" id="Course-&gt;Tag" style="stroke: #A80036; stroke-width: 1.0;"/><polygon fill="#A80036" points="106.09,980.71,107.7877,971.0086,104.8773,975.8593,100.0266,972.9489,106.09,980.71" style="stroke: #A80036; stroke-width: 1.0;"/><text fill="#000000" font-family="sans-serif" font-size="13" lengthAdjust="spacingAndGlyphs" textLength="27" x="99" y="946.897">uses</text><!--MD5=[24891b6f2b4baa3e41d0d4c020efb069]
@startuml
class Semester {
    - _year : int
    - _season : str
    - _courses : list[Course]
    + year() : int
    + year(val: int)
    + season() : str
    + season(val: str)
    + courses() : list[Course]
    + courses(val: list[Course])
    + print_courses() : None
    + add_course(course: Course)
    + remove_course(course: Course)
    + clear_courses() : None
    __str__() : str
}

class Course {
    - _name : str
    - _number : int
    - _dept : Tag
    + name() : str
    + name(val : str)
    + number() : int
    + number(val : int)
    + dept() : Tag
    + dept(val : Tag)
    __str__() : str
}

class Tag {
    - _name : str
    - _description : str
    + name() : str
    + name(val : str)
    + description() : str
    + description(val : str)
    __str__() : str
}

class GUI {
    - _file : str
    - _tag : str

}

class GuiEventHandler {
    - pickfile() : str
    - pickpath(Tag : str) : str
    - savefileas(file : str, dir : str)
    + getTag(file : str) : str
    + setTag(Tag : str)
}

GUI - -> GuiEventHandler : uses
GuiEventHandler - -> Semester : uses
Semester - -> Course : uses
Semester - -> Tag : uses
Course - -> Tag : uses

@enduml

PlantUML version 1.2020.02(Sun Mar 01 03:22:07 MST 2020)
(GPL source distribution)
Java Runtime: OpenJDK Runtime Environment
JVM: OpenJDK 64-Bit Server VM
Java Version: 21.0.10+7-Ubuntu-124.04
Operating System: Linux
Default Encoding: UTF-8
Language: en
Country: US
--></g></svg>