<?xml version="1.0" encoding="UTF-8" standalone="no"?><svg xmlns="http://www.w3.org/2000/svg" xmlns:xlink="http://www.w3.org/1999/xlink" contentScriptType="application/ecmascript" contentStyleType="text/css" height="748px" preserveAspectRatio="none" style="width:228px;height:748px;" version="1.1" viewBox="0 0 228 748" width="228px" zoomAndPan="magnify"><defs><filter height="300%" id="f1s6zchw6q98rw" width="300%" x="-1" y="-1"><feGaussianBlur result="blurOut" stdDeviation="2.0"/><feColorMatrix in="blurOut" result="blurOut2" type="matrix" values="0 0 0 0 0 0 0 0 0 0 0 0 0 0 0 0 0 0 .4 0"/><feOffset dx="4.0" dy="4.0" in="blurOut2" result="blurOut3"/><feBlend in="SourceGraphic" in2="blurOut3" mode="normal"/></filter></defs><g><!--MD5=[37d9809cb88c3d7038c4b5df64e24c2e]
class Semester--><rect fill="#FEFECE" filter="url(#f1s6zchw6q98rw)" height="197.8189" id="Semester" style="stroke: #A80036; stroke-width: 1.5;" width="185" x="32.5" y="135"/><ellipse cx="93.75" cy="151" fill="#ADD1B2" rx="11" ry="11" style="stroke: #A80036; stroke-width: 1.0;"/><path d="M96.7188,156.6406 Q96.1406,156.9375 95.5,157.0781 Q94.8594,157.2344 94.1563,157.2344 Q91.6563,157.2344 90.3281,155.5938 Q89.0156,153.9375 89.0156,150.8125 Q89.0156,147.6875 90.3281,146.0313 Q91.6563,144.375 94.1563,144.375 Q94.8594,144.375 95.5,144.5313 Q96.1563,144.6875 96.7188,144.9844 L96.7188,147.7031 Q96.0938,147.125 95.5,146.8594 Q94.9063,146.5781 94.2813,146.5781 Q92.9375,146.5781 92.25,147.6563 Q91.5625,148.7188 91.5625,150.8125 Q91.5625,152.9063 92.25,153.9844 Q92.9375,155.0469 94.2813,155.0469 Q94.9063,155.0469 95.5,154.7813 Q96.0938,154.5 96.7188,153.9219 L96.7188,156.6406 Z "/><text fill="#000000" font-family="sans-serif" font-size="12" lengthAdjust="spacingAndGlyphs" textLength="54" x="114.25" y="155.656">Semester</text><line style="stroke: #A80036; stroke-width: 1.5;" x1="33.5" x2="216.5" y1="167" y2="167"/><rect fill="none" height="6" style="stroke: #C82930; stroke-width: 1.0;" width="6" x="40.5" y="175"/><text fill="#000000" font-family="sans-serif" font-size="11" lengthAdjust="spacingAndGlyphs" textLength="51" x="52.5" y="182.7589">_year : int</text><rect fill="none" height="6" style="stroke: #C82930; stroke-width: 1.0;" width="6" x="40.5" y="189.9819"/><text fill="#000000" font-family="sans-serif" font-size="11" lengthAdjust="spacingAndGlyphs" textLength="64" x="52.5" y="197.7408">_season : str</text><rect fill="none" height="6" style="stroke: #C82930; stroke-width: 1.0;" width="6" x="40.5" y="204.9638"/><text fill="#000000" font-family="sans-serif" font-size="11" lengthAdjust="spacingAndGlyphs" textLength="142" x="52.5" y="212.7227">_courses : list[tuple[str, int]</text><line style="stroke: #A80036; stroke-width: 1.5;" x1="33.5" x2="216.5" y1="219.9457" y2="219.9457"/><ellipse cx="43.5" cy="230.9457" fill="#84BE84" rx="3" ry="3" style="stroke: #038048; stroke-width: 1.0;"/><text fill="#000000" font-family="sans-serif" font-size="11" lengthAdjust="spacingAndGlyphs" textLength="52" x="52.5" y="235.7046">year() : int</text><ellipse cx="43.5" cy="245.9276" fill="#84BE84" rx="3" ry="3" style="stroke: #038048; stroke-width: 1.0;"/><text fill="#000000" font-family="sans-serif" font-size="11" lengthAdjust="spacingAndGlyphs" textLength="67" x="52.5" y="250.6865">year(val : int)</text><ellipse cx="43.5" cy="260.9094" fill="#84BE84" rx="3" ry="3" style="stroke: #038048; stroke-width: 1.0;"/><text fill="#000000" font-family="sans-serif" font-size="11" lengthAdjust="spacingAndGlyphs" textLength="65" x="52.5" y="265.6684">season() : str</text><ellipse cx="43.5" cy="275.8913" fill="#84BE84" rx="3" ry="3" style="stroke: #038048; stroke-width: 1.0;"/><text fill="#000000" font-family="sans-serif" font-size="11" lengthAdjust="spacingAndGlyphs" textLength="80" x="52.5" y="280.6502">season(val : str)</text><ellipse cx="43.5" cy="290.8732" fill="#84BE84" rx="3" ry="3" style="stroke: #038048; stroke-width: 1.0;"/><text fill="#000000" font-family="sans-serif" font-size="11" lengthAdjust="spacingAndGlyphs" textLength="143" x="52.5" y="295.6321">courses() : list[tuple[str, int]</text><ellipse cx="43.5" cy="305.8551" fill="#84BE84" rx="3" ry="3" style="stroke: #038048; stroke-width: 1.0;"/><text fill="#000000" font-family="sans-serif" font-size="11" lengthAdjust="spacingAndGlyphs" textLength="159" x="52.5" y="310.614">courses(arr : list[tuple[str, int])</text><text fill="#000000" font-family="sans-serif" font-size="11" lengthAdjust="spacingAndGlyphs" textLength="63" x="52.5" y="325.5959">__str__() : str</text><!--MD5=[4066b0363c5a91ff3b6e03e0428953a9]
class Course--><rect fill="#FEFECE" filter="url(#f1s6zchw6q98rw)" height="197.8189" id="Course" style="stroke: #A80036; stroke-width: 1.5;" width="112" x="6" y="412"/><ellipse cx="39" cy="428" fill="#ADD1B2" rx="11" ry="11" style="stroke: #A80036; stroke-width: 1.0;"/><path d="M41.9688,433.6406 Q41.3906,433.9375 40.75,434.0781 Q40.1094,434.2344 39.4063,434.2344 Q36.9063,434.2344 35.5781,432.5938 Q34.2656,430.9375 34.2656,427.8125 Q34.2656,424.6875 35.5781,423.0313 Q36.9063,421.375 39.4063,421.375 Q40.1094,421.375 40.75,421.5313 Q41.4063,421.6875 41.9688,421.9844 L41.9688,424.7031 Q41.3438,424.125 40.75,423.8594 Q40.1563,423.5781 39.5313,423.5781 Q38.1875,423.5781 37.5,424.6563 Q36.8125,425.7188 36.8125,427.8125 Q36.8125,429.9063 37.5,430.9844 Q38.1875,432.0469 39.5313,432.0469 Q40.1563,432.0469 40.75,431.7813 Q41.3438,431.5 41.9688,430.9219 L41.9688,433.6406 Z "/><text fill="#000000" font-family="sans-serif" font-size="12" lengthAdjust="spacingAndGlyphs" textLength="40" x="57" y="432.656">Course</text><line style="stroke: #A80036; stroke-width: 1.5;" x1="7" x2="117" y1="444" y2="444"/><rect fill="none" height="6" style="stroke: #C82930; stroke-width: 1.0;" width="6" x="14" y="452"/><text fill="#000000" font-family="sans-serif" font-size="11" lengthAdjust="spacingAndGlyphs" textLength="57" x="26" y="459.7589">_name : str</text><rect fill="none" height="6" style="stroke: #C82930; stroke-width: 1.0;" width="6" x="14" y="466.9819"/><text fill="#000000" font-family="sans-serif" font-size="11" lengthAdjust="spacingAndGlyphs" textLength="70" x="26" y="474.7408">_number : int</text><rect fill="none" height="6" style="stroke: #C82930; stroke-width: 1.0;" width="6" x="14" y="481.9638"/><text fill="#000000" font-family="sans-serif" font-size="11" lengthAdjust="spacingAndGlyphs" textLength="57" x="26" y="489.7227">_dept : Tag</text><line style="stroke: #A80036; stroke-width: 1.5;" x1="7" x2="117" y1="496.9457" y2="496.9457"/><ellipse cx="17" cy="507.9457" fill="#84BE84" rx="3" ry="3" style="stroke: #038048; stroke-width: 1.0;"/><text fill="#000000" font-family="sans-serif" font-size="11" lengthAdjust="spacingAndGlyphs" textLength="58" x="26" y="512.7046">name() : str</text><ellipse cx="17" cy="522.9276" fill="#84BE84" rx="3" ry="3" style="stroke: #038048; stroke-width: 1.0;"/><text fill="#000000" font-family="sans-serif" font-size="11" lengthAdjust="spacingAndGlyphs" textLength="73" x="26" y="527.6865">name(val : str)</text><ellipse cx="17" cy="537.9094" fill="#84BE84" rx="3" ry="3" style="stroke: #038048; stroke-width: 1.0;"/><text fill="#000000" font-family="sans-serif" font-size="11" lengthAdjust="spacingAndGlyphs" textLength="71" x="26" y="542.6684">number() : int</text><ellipse cx="17" cy="552.8913" fill="#84BE84" rx="3" ry="3" style="stroke: #038048; stroke-width: 1.0;"/><text fill="#000000" font-family="sans-serif" font-size="11" lengthAdjust="spacingAndGlyphs" textLength="86" x="26" y="557.6502">number(val : int)</text><ellipse cx="17" cy="567.8732" fill="#84BE84" rx="3" ry="3" style="stroke: #038048; stroke-width: 1.0;"/><text fill="#000000" font-family="sans-serif" font-size="11" lengthAdjust="spacingAndGlyphs" textLength="58" x="26" y="572.6321">dept() : Tag</text><ellipse cx="17" cy="582.8551" fill="#84BE84" rx="3" ry="3" style="stroke: #038048; stroke-width: 1.0;"/><text fill="#000000" font-family="sans-serif" font-size="11" lengthAdjust="spacingAndGlyphs" textLength="73" x="26" y="587.614">dept(val : Tag)</text><text fill="#000000" font-family="sans-serif" font-size="11" lengthAdjust="spacingAndGlyphs" textLength="63" x="26" y="602.5959">__str__() : str</text><!--MD5=[39d6d2ea03de602dbf4d534e70c872a9]
class Tag--><rect fill="#FEFECE" filter="url(#f1s6zchw6q98rw)" height="48" id="Tag" style="stroke: #A80036; stroke-width: 1.5;" width="53" x="98.5" y="689"/><ellipse cx="113.5" cy="705" fill="#ADD1B2" rx="11" ry="11" style="stroke: #A80036; stroke-width: 1.0;"/><path d="M116.4688,710.6406 Q115.8906,710.9375 115.25,711.0781 Q114.6094,711.2344 113.9063,711.2344 Q111.4063,711.2344 110.0781,709.5938 Q108.7656,707.9375 108.7656,704.8125 Q108.7656,701.6875 110.0781,700.0313 Q111.4063,698.375 113.9063,698.375 Q114.6094,698.375 115.25,698.5313 Q115.9063,698.6875 116.4688,698.9844 L116.4688,701.7031 Q115.8438,701.125 115.25,700.8594 Q114.6563,700.5781 114.0313,700.5781 Q112.6875,700.5781 112,701.6563 Q111.3125,702.7188 111.3125,704.8125 Q111.3125,706.9063 112,707.9844 Q112.6875,709.0469 114.0313,709.0469 Q114.6563,709.0469 115.25,708.7813 Q115.8438,708.5 116.4688,707.9219 L116.4688,710.6406 Z "/><text fill="#000000" font-family="sans-serif" font-size="12" lengthAdjust="spacingAndGlyphs" textLength="21" x="127.5" y="709.656">Tag</text><line style="stroke: #A80036; stroke-width: 1.5;" x1="99.5" x2="150.5" y1="721" y2="721"/><line style="stroke: #A80036; stroke-width: 1.5;" x1="99.5" x2="150.5" y1="729" y2="729"/><!--MD5=[1f9aa183c03a5a4b2c7a355206fc0cf9]
class GUI--><rect fill="#FEFECE" filter="url(#f1s6zchw6q98rw)" height="48" id="GUI" style="stroke: #A80036; stroke-width: 1.5;" width="54" x="98" y="8"/><ellipse cx="113" cy="24" fill="#ADD1B2" rx="11" ry="11" style="stroke: #A80036; stroke-width: 1.0;"/><path d="M115.9688,29.6406 Q115.3906,29.9375 114.75,30.0781 Q114.1094,30.2344 113.4063,30.2344 Q110.9063,30.2344 109.5781,28.5938 Q108.2656,26.9375 108.2656,23.8125 Q108.2656,20.6875 109.5781,19.0313 Q110.9063,17.375 113.4063,17.375 Q114.1094,17.375 114.75,17.5313 Q115.4063,17.6875 115.9688,17.9844 L115.9688,20.7031 Q115.3438,20.125 114.75,19.8594 Q114.1563,19.5781 113.5313,19.5781 Q112.1875,19.5781 111.5,20.6563 Q110.8125,21.7188 110.8125,23.8125 Q110.8125,25.9063 111.5,26.9844 Q112.1875,28.0469 113.5313,28.0469 Q114.1563,28.0469 114.75,27.7813 Q115.3438,27.5 115.9688,26.9219 L115.9688,29.6406 Z "/><text fill="#000000" font-family="sans-serif" font-size="12" lengthAdjust="spacingAndGlyphs" textLength="22" x="127" y="28.656">GUI</text><line style="stroke: #A80036; stroke-width: 1.5;" x1="99" x2="151" y1="40" y2="40"/><line style="stroke: #A80036; stroke-width: 1.5;" x1="99" x2="151" y1="48" y2="48"/><!--MD5=[a8f16c1fc7d3882a64ba316b1ceea21e]
link GUI to Semester--><path d="M125,56.33 C125,74.86 125,102.17 125,129.79 " fill="none" id="GUI-&gt;Semester" style="stroke: #A80036; stroke-width: 1.0;"/><polygon fill="#A80036" points="125,134.96,129,125.96,125,129.96,121,125.96,125,134.96" style="stroke: #A80036; stroke-width: 1.0;"/><text fill="#000000" font-family="sans-serif" font-size="13" lengthAdjust="spacingAndGlyphs" textLength="27" x="126" y="100.897">uses</text><!--MD5=[d1adcb7189877e1ed669743a5e0c0d0d]
link Semester to Course--><path d="M102.52,333.12 C97.05,357.02 91.17,382.66 85.64,406.8 " fill="none" id="Semester-&gt;Course" style="stroke: #A80036; stroke-width: 1.0;"/><polygon fill="#A80036" points="84.47,411.92,90.3761,404.0385,85.5849,407.0459,82.5775,402.2547,84.47,411.92" style="stroke: #A80036; stroke-width: 1.0;"/><text fill="#000000" font-family="sans-serif" font-size="13" lengthAdjust="spacingAndGlyphs" textLength="27" x="97" y="377.897">uses</text><!--MD5=[a188634d979a0b15cba78deaa1296187]
link Semester to Tag--><path d="M131.65,333.15 C136.83,415.13 143.54,535.12 146,640 C146.2,648.44 147.58,650.71 146,659 C144.4,667.37 141.5,676.11 138.36,684.02 " fill="none" id="Semester-&gt;Tag" style="stroke: #A80036; stroke-width: 1.0;"/><polygon fill="#A80036" points="136.38,688.83,143.4981,682.0232,138.2787,684.2045,136.0973,678.9852,136.38,688.83" style="stroke: #A80036; stroke-width: 1.0;"/><text fill="#000000" font-family="sans-serif" font-size="13" lengthAdjust="spacingAndGlyphs" textLength="27" x="146" y="516.397">uses</text><!--MD5=[745980d044eb8511e9cf45b466ca37b4]
link Course to Tag--><path d="M92.95,610.24 C101.49,637.38 110.1,664.69 116.24,684.18 " fill="none" id="Course-&gt;Tag" style="stroke: #A80036; stroke-width: 1.0;"/><polygon fill="#A80036" points="117.74,688.96,118.8301,679.1717,116.2275,684.1942,111.2049,681.5916,117.74,688.96" style="stroke: #A80036; stroke-width: 1.0;"/><text fill="#000000" font-family="sans-serif" font-size="13" lengthAdjust="spacingAndGlyphs" textLength="27" x="110" y="654.897">uses</text><!--MD5=[ffb2723c5c5db5c1f411b1b417e7f4b3]
@startuml
class Semester {
    - _year : int
    - _season : str
    - _courses : list[tuple[str, int]
    + year() : int
    + year(val : int)
    + season() : str
    + season(val : str)
    + courses() : list[tuple[str, int]
    + courses(arr : list[tuple[str, int])
    __str__() : str
}

class Course {
    - _name : str
    - _number : int
    - _dept : Tag
    + name() : str
    + name(val : str)
    + number() : int
    + number(val : int)
    + dept() : Tag
    + dept(val : Tag)
    __str__() : str
}

class Tag {
}

class GUI {
}

GUI - -> Semester : uses
Semester - -> Course : uses
Semester - -> Tag : uses
Course - -> Tag : uses

@enduml

PlantUML version 1.2020.02(Sun Mar 01 03:22:07 MST 2020)
(GPL source distribution)
Java Runtime: OpenJDK Runtime Environment
JVM: OpenJDK 64-Bit Server VM
Java Version: 21.0.10+7-Ubuntu-124.04
Operating System: Linux
Default Encoding: UTF-8
Language: en
Country: US
--></g></svg>