<?xml version="1.0" encoding="UTF-8" standalone="no"?><svg xmlns="http://www.w3.org/2000/svg" xmlns:xlink="http://www.w3.org/1999/xlink" contentScriptType="application/ecmascript" contentStyleType="text/css" height="900px" preserveAspectRatio="none" style="width:244px;height:900px;" version="1.1" viewBox="0 0 244 900" width="244px" zoomAndPan="magnify"><defs><filter height="300%" id="fyx7oolzzek9k" width="300%" x="-1" y="-1"><feGaussianBlur result="blurOut" stdDeviation="2.0"/><feColorMatrix in="blurOut" result="blurOut2" type="matrix" values="0 0 0 0 0 0 0 0 0 0 0 0 0 0 0 0 0 0 .4 0"/><feOffset dx="4.0" dy="4.0" in="blurOut2" result="blurOut3"/><feBlend in="SourceGraphic" in2="blurOut3" mode="normal"/></filter></defs><g><!--MD5=[37d9809cb88c3d7038c4b5df64e24c2e]
class Semester--><rect fill="#FEFECE" filter="url(#fyx7oolzzek9k)" height="176.0469" id="Semester" style="stroke: #A80036; stroke-width: 1.5;" width="204" x="29" y="335"/><ellipse cx="96.75" cy="351" fill="#ADD1B2" rx="11" ry="11" style="stroke: #A80036; stroke-width: 1.0;"/><path d="M99.7188,356.6406 Q99.1406,356.9375 98.5,357.0781 Q97.8594,357.2344 97.1563,357.2344 Q94.6563,357.2344 93.3281,355.5938 Q92.0156,353.9375 92.0156,350.8125 Q92.0156,347.6875 93.3281,346.0313 Q94.6563,344.375 97.1563,344.375 Q97.8594,344.375 98.5,344.5313 Q99.1563,344.6875 99.7188,344.9844 L99.7188,347.7031 Q99.0938,347.125 98.5,346.8594 Q97.9063,346.5781 97.2813,346.5781 Q95.9375,346.5781 95.25,347.6563 Q94.5625,348.7188 94.5625,350.8125 Q94.5625,352.9063 95.25,353.9844 Q95.9375,355.0469 97.2813,355.0469 Q97.9063,355.0469 98.5,354.7813 Q99.0938,354.5 99.7188,353.9219 L99.7188,356.6406 Z "/><text fill="#000000" font-family="sans-serif" font-size="12" lengthAdjust="spacingAndGlyphs" textLength="60" x="117.25" y="355.1543">Semester</text><line style="stroke: #A80036; stroke-width: 1.5;" x1="30" x2="232" y1="367" y2="367"/><rect fill="none" height="6" style="stroke: #C82930; stroke-width: 1.0;" width="6" x="37" y="375"/><text fill="#000000" font-family="sans-serif" font-size="11" lengthAdjust="spacingAndGlyphs" textLength="57" x="49" y="381.2104">_year : int</text><rect fill="none" height="6" style="stroke: #C82930; stroke-width: 1.0;" width="6" x="37" y="387.8047"/><text fill="#000000" font-family="sans-serif" font-size="11" lengthAdjust="spacingAndGlyphs" textLength="76" x="49" y="394.0151">_season : str</text><rect fill="none" height="6" style="stroke: #C82930; stroke-width: 1.0;" width="6" x="37" y="400.6094"/><text fill="#000000" font-family="sans-serif" font-size="11" lengthAdjust="spacingAndGlyphs" textLength="159" x="49" y="406.8198">_courses : list[tuple[str, int]</text><line style="stroke: #A80036; stroke-width: 1.5;" x1="30" x2="232" y1="413.4141" y2="413.4141"/><ellipse cx="40" cy="424.4141" fill="#84BE84" rx="3" ry="3" style="stroke: #038048; stroke-width: 1.0;"/><text fill="#000000" font-family="sans-serif" font-size="11" lengthAdjust="spacingAndGlyphs" textLength="59" x="49" y="427.6245">year() : int</text><ellipse cx="40" cy="437.2188" fill="#84BE84" rx="3" ry="3" style="stroke: #038048; stroke-width: 1.0;"/><text fill="#000000" font-family="sans-serif" font-size="11" lengthAdjust="spacingAndGlyphs" textLength="75" x="49" y="440.4292">year(val : int)</text><ellipse cx="40" cy="450.0234" fill="#84BE84" rx="3" ry="3" style="stroke: #038048; stroke-width: 1.0;"/><text fill="#000000" font-family="sans-serif" font-size="11" lengthAdjust="spacingAndGlyphs" textLength="78" x="49" y="453.2339">season() : str</text><ellipse cx="40" cy="462.8281" fill="#84BE84" rx="3" ry="3" style="stroke: #038048; stroke-width: 1.0;"/><text fill="#000000" font-family="sans-serif" font-size="11" lengthAdjust="spacingAndGlyphs" textLength="94" x="49" y="466.0386">season(val : str)</text><ellipse cx="40" cy="475.6328" fill="#84BE84" rx="3" ry="3" style="stroke: #038048; stroke-width: 1.0;"/><text fill="#000000" font-family="sans-serif" font-size="11" lengthAdjust="spacingAndGlyphs" textLength="161" x="49" y="478.8433">courses() : list[tuple[str, int]</text><ellipse cx="40" cy="488.4375" fill="#84BE84" rx="3" ry="3" style="stroke: #038048; stroke-width: 1.0;"/><text fill="#000000" font-family="sans-serif" font-size="11" lengthAdjust="spacingAndGlyphs" textLength="178" x="49" y="491.6479">courses(arr : list[tuple[str, int])</text><text fill="#000000" font-family="sans-serif" font-size="11" lengthAdjust="spacingAndGlyphs" textLength="76" x="49" y="504.4526">__str__() : str</text><!--MD5=[4066b0363c5a91ff3b6e03e0428953a9]
class Course--><rect fill="#FEFECE" filter="url(#fyx7oolzzek9k)" height="176.0469" id="Course" style="stroke: #A80036; stroke-width: 1.5;" width="120" x="6" y="588"/><ellipse cx="40.8" cy="604" fill="#ADD1B2" rx="11" ry="11" style="stroke: #A80036; stroke-width: 1.0;"/><path d="M43.7688,609.6406 Q43.1906,609.9375 42.55,610.0781 Q41.9094,610.2344 41.2063,610.2344 Q38.7063,610.2344 37.3781,608.5938 Q36.0656,606.9375 36.0656,603.8125 Q36.0656,600.6875 37.3781,599.0313 Q38.7063,597.375 41.2063,597.375 Q41.9094,597.375 42.55,597.5313 Q43.2063,597.6875 43.7688,597.9844 L43.7688,600.7031 Q43.1438,600.125 42.55,599.8594 Q41.9563,599.5781 41.3313,599.5781 Q39.9875,599.5781 39.3,600.6563 Q38.6125,601.7188 38.6125,603.8125 Q38.6125,605.9063 39.3,606.9844 Q39.9875,608.0469 41.3313,608.0469 Q41.9563,608.0469 42.55,607.7813 Q43.1438,607.5 43.7688,606.9219 L43.7688,609.6406 Z "/><text fill="#000000" font-family="sans-serif" font-size="12" lengthAdjust="spacingAndGlyphs" textLength="44" x="59.2" y="608.1543">Course</text><line style="stroke: #A80036; stroke-width: 1.5;" x1="7" x2="125" y1="620" y2="620"/><rect fill="none" height="6" style="stroke: #C82930; stroke-width: 1.0;" width="6" x="14" y="628"/><text fill="#000000" font-family="sans-serif" font-size="11" lengthAdjust="spacingAndGlyphs" textLength="66" x="26" y="634.2104">_name : str</text><rect fill="none" height="6" style="stroke: #C82930; stroke-width: 1.0;" width="6" x="14" y="640.8047"/><text fill="#000000" font-family="sans-serif" font-size="11" lengthAdjust="spacingAndGlyphs" textLength="76" x="26" y="647.0151">_number : int</text><rect fill="none" height="6" style="stroke: #C82930; stroke-width: 1.0;" width="6" x="14" y="653.6094"/><text fill="#000000" font-family="sans-serif" font-size="11" lengthAdjust="spacingAndGlyphs" textLength="64" x="26" y="659.8198">_dept : Tag</text><line style="stroke: #A80036; stroke-width: 1.5;" x1="7" x2="125" y1="666.4141" y2="666.4141"/><ellipse cx="17" cy="677.4141" fill="#84BE84" rx="3" ry="3" style="stroke: #038048; stroke-width: 1.0;"/><text fill="#000000" font-family="sans-serif" font-size="11" lengthAdjust="spacingAndGlyphs" textLength="68" x="26" y="680.6245">name() : str</text><ellipse cx="17" cy="690.2188" fill="#84BE84" rx="3" ry="3" style="stroke: #038048; stroke-width: 1.0;"/><text fill="#000000" font-family="sans-serif" font-size="11" lengthAdjust="spacingAndGlyphs" textLength="84" x="26" y="693.4292">name(val : str)</text><ellipse cx="17" cy="703.0234" fill="#84BE84" rx="3" ry="3" style="stroke: #038048; stroke-width: 1.0;"/><text fill="#000000" font-family="sans-serif" font-size="11" lengthAdjust="spacingAndGlyphs" textLength="78" x="26" y="706.2339">number() : int</text><ellipse cx="17" cy="715.8281" fill="#84BE84" rx="3" ry="3" style="stroke: #038048; stroke-width: 1.0;"/><text fill="#000000" font-family="sans-serif" font-size="11" lengthAdjust="spacingAndGlyphs" textLength="94" x="26" y="719.0386">number(val : int)</text><ellipse cx="17" cy="728.6328" fill="#84BE84" rx="3" ry="3" style="stroke: #038048; stroke-width: 1.0;"/><text fill="#000000" font-family="sans-serif" font-size="11" lengthAdjust="spacingAndGlyphs" textLength="66" x="26" y="731.8433">dept() : Tag</text><ellipse cx="17" cy="741.4375" fill="#84BE84" rx="3" ry="3" style="stroke: #038048; stroke-width: 1.0;"/><text fill="#000000" font-family="sans-serif" font-size="11" lengthAdjust="spacingAndGlyphs" textLength="82" x="26" y="744.6479">dept(val : Tag)</text><text fill="#000000" font-family="sans-serif" font-size="11" lengthAdjust="spacingAndGlyphs" textLength="76" x="26" y="757.4526">__str__() : str</text><!--MD5=[39d6d2ea03de602dbf4d534e70c872a9]
class Tag--><rect fill="#FEFECE" filter="url(#fyx7oolzzek9k)" height="48" id="Tag" style="stroke: #A80036; stroke-width: 1.5;" width="55" x="103.5" y="841"/><ellipse cx="118.5" cy="857" fill="#ADD1B2" rx="11" ry="11" style="stroke: #A80036; stroke-width: 1.0;"/><path d="M121.4688,862.6406 Q120.8906,862.9375 120.25,863.0781 Q119.6094,863.2344 118.9063,863.2344 Q116.4063,863.2344 115.0781,861.5938 Q113.7656,859.9375 113.7656,856.8125 Q113.7656,853.6875 115.0781,852.0313 Q116.4063,850.375 118.9063,850.375 Q119.6094,850.375 120.25,850.5313 Q120.9063,850.6875 121.4688,850.9844 L121.4688,853.7031 Q120.8438,853.125 120.25,852.8594 Q119.6563,852.5781 119.0313,852.5781 Q117.6875,852.5781 117,853.6563 Q116.3125,854.7188 116.3125,856.8125 Q116.3125,858.9063 117,859.9844 Q117.6875,861.0469 119.0313,861.0469 Q119.6563,861.0469 120.25,860.7813 Q120.8438,860.5 121.4688,859.9219 L121.4688,862.6406 Z "/><text fill="#000000" font-family="sans-serif" font-size="12" lengthAdjust="spacingAndGlyphs" textLength="23" x="132.5" y="861.1543">Tag</text><line style="stroke: #A80036; stroke-width: 1.5;" x1="104.5" x2="157.5" y1="873" y2="873"/><line style="stroke: #A80036; stroke-width: 1.5;" x1="104.5" x2="157.5" y1="881" y2="881"/><!--MD5=[1f9aa183c03a5a4b2c7a355206fc0cf9]
class GUI--><rect fill="#FEFECE" filter="url(#fyx7oolzzek9k)" height="60.8047" id="GUI" style="stroke: #A80036; stroke-width: 1.5;" width="77" x="92.5" y="8"/><ellipse cx="118.3" cy="24" fill="#ADD1B2" rx="11" ry="11" style="stroke: #A80036; stroke-width: 1.0;"/><path d="M121.2688,29.6406 Q120.6906,29.9375 120.05,30.0781 Q119.4094,30.2344 118.7063,30.2344 Q116.2063,30.2344 114.8781,28.5938 Q113.5656,26.9375 113.5656,23.8125 Q113.5656,20.6875 114.8781,19.0313 Q116.2063,17.375 118.7063,17.375 Q119.4094,17.375 120.05,17.5313 Q120.7063,17.6875 121.2688,17.9844 L121.2688,20.7031 Q120.6438,20.125 120.05,19.8594 Q119.4563,19.5781 118.8313,19.5781 Q117.4875,19.5781 116.8,20.6563 Q116.1125,21.7188 116.1125,23.8125 Q116.1125,25.9063 116.8,26.9844 Q117.4875,28.0469 118.8313,28.0469 Q119.4563,28.0469 120.05,27.7813 Q120.6438,27.5 121.2688,26.9219 L121.2688,29.6406 Z "/><text fill="#000000" font-family="sans-serif" font-size="12" lengthAdjust="spacingAndGlyphs" textLength="21" x="134.7" y="28.1543">GUI</text><line style="stroke: #A80036; stroke-width: 1.5;" x1="93.5" x2="168.5" y1="40" y2="40"/><rect fill="none" height="6" style="stroke: #C82930; stroke-width: 1.0;" width="6" x="100.5" y="48"/><text fill="#000000" font-family="sans-serif" font-size="11" lengthAdjust="spacingAndGlyphs" textLength="51" x="112.5" y="54.2104">_file : str</text><line style="stroke: #A80036; stroke-width: 1.5;" x1="93.5" x2="168.5" y1="60.8047" y2="60.8047"/><!--MD5=[2e57ba615b14cbd101221704118356f5]
class GuiEventHandler--><rect fill="#FEFECE" filter="url(#fyx7oolzzek9k)" height="112.0234" id="GuiEventHandler" style="stroke: #A80036; stroke-width: 1.5;" width="188" x="37" y="146"/><ellipse cx="75.4" cy="162" fill="#ADD1B2" rx="11" ry="11" style="stroke: #A80036; stroke-width: 1.0;"/><path d="M78.3688,167.6406 Q77.7906,167.9375 77.15,168.0781 Q76.5094,168.2344 75.8063,168.2344 Q73.3063,168.2344 71.9781,166.5938 Q70.6656,164.9375 70.6656,161.8125 Q70.6656,158.6875 71.9781,157.0313 Q73.3063,155.375 75.8063,155.375 Q76.5094,155.375 77.15,155.5313 Q77.8063,155.6875 78.3688,155.9844 L78.3688,158.7031 Q77.7438,158.125 77.15,157.8594 Q76.5563,157.5781 75.9313,157.5781 Q74.5875,157.5781 73.9,158.6563 Q73.2125,159.7188 73.2125,161.8125 Q73.2125,163.9063 73.9,164.9844 Q74.5875,166.0469 75.9313,166.0469 Q76.5563,166.0469 77.15,165.7813 Q77.7438,165.5 78.3688,164.9219 L78.3688,167.6406 Z "/><text fill="#000000" font-family="sans-serif" font-size="12" lengthAdjust="spacingAndGlyphs" textLength="104" x="94.6" y="166.1543">GuiEventHandler</text><line style="stroke: #A80036; stroke-width: 1.5;" x1="38" x2="224" y1="178" y2="178"/><line style="stroke: #A80036; stroke-width: 1.5;" x1="38" x2="224" y1="186" y2="186"/><rect fill="#F24D5C" height="6" style="stroke: #C82930; stroke-width: 1.0;" width="6" x="45" y="194"/><text fill="#000000" font-family="sans-serif" font-size="11" lengthAdjust="spacingAndGlyphs" textLength="75" x="57" y="200.2104">pickfile() : str</text><rect fill="#F24D5C" height="6" style="stroke: #C82930; stroke-width: 1.0;" width="6" x="45" y="206.8047"/><text fill="#000000" font-family="sans-serif" font-size="11" lengthAdjust="spacingAndGlyphs" textLength="132" x="57" y="213.0151">pickpath(Tag : str) : str</text><rect fill="#F24D5C" height="6" style="stroke: #C82930; stroke-width: 1.0;" width="6" x="45" y="219.6094"/><text fill="#000000" font-family="sans-serif" font-size="11" lengthAdjust="spacingAndGlyphs" textLength="162" x="57" y="225.8198">savefileas(file : str, dir : str)</text><ellipse cx="48" cy="235.4141" fill="#84BE84" rx="3" ry="3" style="stroke: #038048; stroke-width: 1.0;"/><text fill="#000000" font-family="sans-serif" font-size="11" lengthAdjust="spacingAndGlyphs" textLength="120" x="57" y="238.6245">getTag(file : str) : str</text><ellipse cx="48" cy="248.2188" fill="#84BE84" rx="3" ry="3" style="stroke: #038048; stroke-width: 1.0;"/><text fill="#000000" font-family="sans-serif" font-size="11" lengthAdjust="spacingAndGlyphs" textLength="96" x="57" y="251.4292">setTag(Tag : str)</text><!--MD5=[b0bb1a4a26535e36cbd0a997fe233442]
link GUI to GuiEventHandler--><path d="M131,69.12 C131,89.1 131,116.17 131,140.59 " fill="none" id="GUI-&gt;GuiEventHandler" style="stroke: #A80036; stroke-width: 1.0;"/><polygon fill="#A80036" points="131,145.76,135,136.76,131,140.76,127,136.76,131,145.76" style="stroke: #A80036; stroke-width: 1.0;"/><text fill="#000000" font-family="sans-serif" font-size="13" lengthAdjust="spacingAndGlyphs" textLength="30" x="132" y="112.0669">uses</text><!--MD5=[a9fdc3e220d6d1851a5115bfb55e68cb]
link GuiEventHandler to Semester--><path d="M131,258.26 C131,279.91 131,305.34 131,329.62 " fill="none" id="GuiEventHandler-&gt;Semester" style="stroke: #A80036; stroke-width: 1.0;"/><polygon fill="#A80036" points="131,334.79,135,325.79,131,329.79,127,325.79,131,334.79" style="stroke: #A80036; stroke-width: 1.0;"/><text fill="#000000" font-family="sans-serif" font-size="13" lengthAdjust="spacingAndGlyphs" textLength="30" x="132" y="301.0669">uses</text><!--MD5=[d1adcb7189877e1ed669743a5e0c0d0d]
link Semester to Course--><path d="M108.45,511.08 C102.46,534.22 95.97,559.28 89.91,582.68 " fill="none" id="Semester-&gt;Course" style="stroke: #A80036; stroke-width: 1.0;"/><polygon fill="#A80036" points="88.62,587.65,94.7317,579.9268,89.8629,582.8069,86.9828,577.9382,88.62,587.65" style="stroke: #A80036; stroke-width: 1.0;"/><text fill="#000000" font-family="sans-serif" font-size="13" lengthAdjust="spacingAndGlyphs" textLength="30" x="102" y="554.0669">uses</text><!--MD5=[a188634d979a0b15cba78deaa1296187]
link Semester to Tag--><path d="M138.86,511.18 C139.64,521.23 140.38,531.34 141,541 C148.24,653.32 149.55,681.48 152,794 C152.16,801.55 153.42,803.58 152,811 C150.4,819.37 147.5,828.11 144.36,836.02 " fill="none" id="Semester-&gt;Tag" style="stroke: #A80036; stroke-width: 1.0;"/><polygon fill="#A80036" points="142.38,840.83,149.4981,834.0232,144.2787,836.2045,142.0973,830.9852,142.38,840.83" style="stroke: #A80036; stroke-width: 1.0;"/><text fill="#000000" font-family="sans-serif" font-size="13" lengthAdjust="spacingAndGlyphs" textLength="30" x="152" y="680.5669">uses</text><!--MD5=[745980d044eb8511e9cf45b466ca37b4]
link Course to Tag--><path d="M96.31,764.2 C105.27,789.97 114.44,816.37 121.11,835.54 " fill="none" id="Course-&gt;Tag" style="stroke: #A80036; stroke-width: 1.0;"/><polygon fill="#A80036" points="122.92,840.75,123.7448,830.9357,121.2791,836.0269,116.1879,833.5612,122.92,840.75" style="stroke: #A80036; stroke-width: 1.0;"/><text fill="#000000" font-family="sans-serif" font-size="13" lengthAdjust="spacingAndGlyphs" textLength="30" x="113" y="807.0669">uses</text><!--MD5=[35918457c40e780f8442066477b79fab]
@startuml
class Semester {
    - _year : int
    - _season : str
    - _courses : list[tuple[str, int]
    + year() : int
    + year(val : int)
    + season() : str
    + season(val : str)
    + courses() : list[tuple[str, int]
    + courses(arr : list[tuple[str, int])
    __str__() : str
}

class Course {
    - _name : str
    - _number : int
    - _dept : Tag
    + name() : str
    + name(val : str)
    + number() : int
    + number(val : int)
    + dept() : Tag
    + dept(val : Tag)
    __str__() : str
}

class Tag {
}

class GUI {
    - _file : str

}

class GuiEventHandler {
    - pickfile() : str
    - pickpath(Tag : str) : str
    - savefileas(file : str, dir : str)
    + getTag(file : str) : str
    + setTag(Tag : str)
}

GUI - -> GuiEventHandler : uses
GuiEventHandler - -> Semester : uses
Semester - -> Course : uses
Semester - -> Tag : uses
Course - -> Tag : uses

@enduml

PlantUML version 1.2020.02(Sun Mar 01 03:22:07 MST 2020)
(GPL source distribution)
Java Runtime: OpenJDK Runtime Environment
JVM: OpenJDK 64-Bit Server VM
Java Version: 21.0.10+7-Ubuntu-124.04
Operating System: Linux
Default Encoding: UTF-8
Language: en
Country: null
--></g></svg>