<?xml version="1.0" encoding="UTF-8" standalone="no"?><svg xmlns="http://www.w3.org/2000/svg" xmlns:xlink="http://www.w3.org/1999/xlink" contentScriptType="application/ecmascript" contentStyleType="text/css" height="345px" preserveAspectRatio="none" style="width:265px;height:345px;" version="1.1" viewBox="0 0 265 345" width="265px" zoomAndPan="magnify"><defs><filter height="300%" id="fyu4ntz355c8u" width="300%" x="-1" y="-1"><feGaussianBlur result="blurOut" stdDeviation="2.0"/><feColorMatrix in="blurOut" result="blurOut2" type="matrix" values="0 0 0 0 0 0 0 0 0 0 0 0 0 0 0 0 0 0 .4 0"/><feOffset dx="4.0" dy="4.0" in="blurOut2" result="blurOut3"/><feBlend in="SourceGraphic" in2="blurOut3" mode="normal"/></filter></defs><g><!--MD5=[fca8240bc233c06068545f9c8883ae88]
cluster Frontend--><polygon fill="#FFFFFF" filter="url(#fyu4ntz355c8u)" points="96,24,166,24,173,49.0679,176,49.0679,176,117,96,117,96,24" style="stroke: #000000; stroke-width: 1.5;"/><line style="stroke: #000000; stroke-width: 1.5;" x1="96" x2="173" y1="49.0679" y2="49.0679"/><text fill="#000000" font-family="sans-serif" font-size="14" font-weight="bold" lengthAdjust="spacingAndGlyphs" textLength="64" x="100" y="40.9659">Frontend</text><!--MD5=[b4e09d266be9964199f2622adcc056fa]
cluster Backend--><polygon fill="#FFFFFF" filter="url(#fyu4ntz355c8u)" points="22,141,87,141,94,166.0679,243,166.0679,243,333,22,333,22,141" style="stroke: #000000; stroke-width: 1.5;"/><line style="stroke: #000000; stroke-width: 1.5;" x1="22" x2="94" y1="166.0679" y2="166.0679"/><text fill="#000000" font-family="sans-serif" font-size="14" font-weight="bold" lengthAdjust="spacingAndGlyphs" textLength="59" x="26" y="157.9659">Backend</text><!--MD5=[beb5ad5244d3d849df9473931f7c2e5e]
entity GUI--><rect fill="#FEFECE" filter="url(#fyu4ntz355c8u)" height="39.0679" style="stroke: #A80036; stroke-width: 1.5;" width="45" x="113.5" y="62"/><rect fill="#FEFECE" height="5" style="stroke: #A80036; stroke-width: 1.5;" width="10" x="108.5" y="67"/><rect fill="#FEFECE" height="5" style="stroke: #A80036; stroke-width: 1.5;" width="10" x="108.5" y="91.0679"/><text fill="#000000" font-family="sans-serif" font-size="14" lengthAdjust="spacingAndGlyphs" textLength="25" x="123.5" y="86.9659">GUI</text><!--MD5=[2d70c31688cd818e3cb4bf91c34aaa02]
entity Semester--><rect fill="#FEFECE" filter="url(#fyu4ntz355c8u)" height="39.0679" style="stroke: #A80036; stroke-width: 1.5;" width="83" x="38.5" y="278"/><rect fill="#FEFECE" height="5" style="stroke: #A80036; stroke-width: 1.5;" width="10" x="33.5" y="283"/><rect fill="#FEFECE" height="5" style="stroke: #A80036; stroke-width: 1.5;" width="10" x="33.5" y="307.0679"/><text fill="#000000" font-family="sans-serif" font-size="14" lengthAdjust="spacingAndGlyphs" textLength="63" x="48.5" y="302.9659">Semester</text><!--MD5=[2d969e99472b76dc8184bf7b48565df1]
entity Subject--><rect fill="#FEFECE" filter="url(#fyu4ntz355c8u)" height="39.0679" style="stroke: #A80036; stroke-width: 1.5;" width="70" x="157" y="278"/><rect fill="#FEFECE" height="5" style="stroke: #A80036; stroke-width: 1.5;" width="10" x="152" y="283"/><rect fill="#FEFECE" height="5" style="stroke: #A80036; stroke-width: 1.5;" width="10" x="152" y="307.0679"/><text fill="#000000" font-family="sans-serif" font-size="14" lengthAdjust="spacingAndGlyphs" textLength="50" x="167" y="302.9659">Subject</text><!--MD5=[c32e2cb6c119bdb95b21c18c90004fcb]
entity Tag--><rect fill="#FEFECE" filter="url(#fyu4ntz355c8u)" height="39.0679" style="stroke: #A80036; stroke-width: 1.5;" width="45" x="113.5" y="179"/><rect fill="#FEFECE" height="5" style="stroke: #A80036; stroke-width: 1.5;" width="10" x="108.5" y="184"/><rect fill="#FEFECE" height="5" style="stroke: #A80036; stroke-width: 1.5;" width="10" x="108.5" y="208.0679"/><text fill="#000000" font-family="sans-serif" font-size="14" lengthAdjust="spacingAndGlyphs" textLength="25" x="123.5" y="203.9659">Tag</text><!--MD5=[851a554eaf7624de7fb30fe50c028043]
link GUI to Tag--><path d="M136,101.23 C136,120.95 136,152.04 136,173.53 " fill="none" id="GUI-&gt;Tag" style="stroke: #A80036; stroke-width: 1.0;"/><polygon fill="#A80036" points="136,178.78,140,169.78,136,173.78,132,169.78,136,178.78" style="stroke: #A80036; stroke-width: 1.0;"/><!--MD5=[ed7846cd4babfeaca6ffaf216c4d4d98]
link Tag to Semester--><path d="M125.2,218.2 C116.14,233.9 103.15,256.41 93.42,273.26 " fill="none" id="Tag-&gt;Semester" style="stroke: #A80036; stroke-width: 1.0;"/><polygon fill="#A80036" points="90.76,277.85,98.725,272.057,93.2607,273.5203,91.7974,268.0559,90.76,277.85" style="stroke: #A80036; stroke-width: 1.0;"/><!--MD5=[c6b8c3c12374abb574c2119428536464]
link Tag to Subject--><path d="M146.8,218.2 C155.86,233.9 168.85,256.41 178.58,273.26 " fill="none" id="Tag-&gt;Subject" style="stroke: #A80036; stroke-width: 1.0;"/><polygon fill="#A80036" points="181.24,277.85,180.2026,268.0559,178.7393,273.5203,173.275,272.057,181.24,277.85" style="stroke: #A80036; stroke-width: 1.0;"/><!--MD5=[7a70d3b25d99872887e334d5433885f8]
@startuml
package "Frontend" {
    [GUI]
}

package "Backend" {
    [Semester]
    [Subject]
    [Tag]
}


[GUI] - -> [Tag]
[Tag] - -> [Semester]
[Tag] - -> [Subject]
@enduml

PlantUML version 1.2020.02(Sun Mar 01 03:22:07 MST 2020)
(GPL source distribution)
Java Runtime: OpenJDK Runtime Environment
JVM: OpenJDK 64-Bit Server VM
Java Version: 21.0.10+7-Ubuntu-124.04
Operating System: Linux
Default Encoding: UTF-8
Language: en
Country: US
--></g></svg>