<?xml version="1.0" encoding="UTF-8" standalone="no"?><svg xmlns="http://www.w3.org/2000/svg" xmlns:xlink="http://www.w3.org/1999/xlink" contentScriptType="application/ecmascript" contentStyleType="text/css" height="706px" preserveAspectRatio="none" style="width:627px;height:706px;" version="1.1" viewBox="0 0 627 706" width="627px" zoomAndPan="magnify"><defs><filter height="300%" id="f1nxttowsdpcb2" width="300%" x="-1" y="-1"><feGaussianBlur result="blurOut" stdDeviation="2.0"/><feColorMatrix in="blurOut" result="blurOut2" type="matrix" values="0 0 0 0 0 0 0 0 0 0 0 0 0 0 0 0 0 0 .4 0"/><feOffset dx="4.0" dy="4.0" in="blurOut2" result="blurOut3"/><feBlend in="SourceGraphic" in2="blurOut3" mode="normal"/></filter></defs><g><line style="stroke: #A80036; stroke-width: 1.0; stroke-dasharray: 5.0,5.0;" x1="26" x2="26" y1="89.0679" y2="616.3642"/><line style="stroke: #A80036; stroke-width: 1.0; stroke-dasharray: 5.0,5.0;" x1="186" x2="186" y1="89.0679" y2="616.3642"/><line style="stroke: #A80036; stroke-width: 1.0; stroke-dasharray: 5.0,5.0;" x1="335.5" x2="335.5" y1="89.0679" y2="616.3642"/><line style="stroke: #A80036; stroke-width: 1.0; stroke-dasharray: 5.0,5.0;" x1="451.5" x2="451.5" y1="89.0679" y2="616.3642"/><line style="stroke: #A80036; stroke-width: 1.0; stroke-dasharray: 5.0,5.0;" x1="534.5" x2="534.5" y1="89.0679" y2="616.3642"/><line style="stroke: #A80036; stroke-width: 1.0; stroke-dasharray: 5.0,5.0;" x1="598.5" x2="598.5" y1="89.0679" y2="616.3642"/><text fill="#000000" font-family="sans-serif" font-size="14" lengthAdjust="spacingAndGlyphs" textLength="31" x="8" y="84.9659">User</text><ellipse cx="26.5" cy="13" fill="#FEFECE" filter="url(#f1nxttowsdpcb2)" rx="8" ry="8" style="stroke: #A80036; stroke-width: 2.0;"/><path d="M26.5,21 L26.5,48 M13.5,29 L39.5,29 M26.5,48 L13.5,63 M26.5,48 L39.5,63 " fill="none" filter="url(#f1nxttowsdpcb2)" style="stroke: #A80036; stroke-width: 2.0;"/><text fill="#000000" font-family="sans-serif" font-size="14" lengthAdjust="spacingAndGlyphs" textLength="31" x="8" y="630.3301">User</text><ellipse cx="26.5" cy="644.4321" fill="#FEFECE" filter="url(#f1nxttowsdpcb2)" rx="8" ry="8" style="stroke: #A80036; stroke-width: 2.0;"/><path d="M26.5,652.4321 L26.5,679.4321 M13.5,660.4321 L39.5,660.4321 M26.5,679.4321 L13.5,694.4321 M26.5,679.4321 L39.5,694.4321 " fill="none" filter="url(#f1nxttowsdpcb2)" style="stroke: #A80036; stroke-width: 2.0;"/><rect fill="#FEFECE" filter="url(#f1nxttowsdpcb2)" height="33.0679" style="stroke: #A80036; stroke-width: 1.5;" width="39" x="165" y="51"/><text fill="#000000" font-family="sans-serif" font-size="14" lengthAdjust="spacingAndGlyphs" textLength="25" x="172" y="72.9659">GUI</text><rect fill="#FEFECE" filter="url(#f1nxttowsdpcb2)" height="33.0679" style="stroke: #A80036; stroke-width: 1.5;" width="39" x="165" y="615.3642"/><text fill="#000000" font-family="sans-serif" font-size="14" lengthAdjust="spacingAndGlyphs" textLength="25" x="172" y="637.3301">GUI</text><rect fill="#FEFECE" filter="url(#f1nxttowsdpcb2)" height="33.0679" style="stroke: #A80036; stroke-width: 1.5;" width="128" x="269.5" y="51"/><text fill="#000000" font-family="sans-serif" font-size="14" lengthAdjust="spacingAndGlyphs" textLength="114" x="276.5" y="72.9659">GuiEventHandler</text><rect fill="#FEFECE" filter="url(#f1nxttowsdpcb2)" height="33.0679" style="stroke: #A80036; stroke-width: 1.5;" width="128" x="269.5" y="615.3642"/><text fill="#000000" font-family="sans-serif" font-size="14" lengthAdjust="spacingAndGlyphs" textLength="114" x="276.5" y="637.3301">GuiEventHandler</text><rect fill="#FEFECE" filter="url(#f1nxttowsdpcb2)" height="33.0679" style="stroke: #A80036; stroke-width: 1.5;" width="77" x="411.5" y="51"/><text fill="#000000" font-family="sans-serif" font-size="14" lengthAdjust="spacingAndGlyphs" textLength="63" x="418.5" y="72.9659">Semester</text><rect fill="#FEFECE" filter="url(#f1nxttowsdpcb2)" height="33.0679" style="stroke: #A80036; stroke-width: 1.5;" width="77" x="411.5" y="615.3642"/><text fill="#000000" font-family="sans-serif" font-size="14" lengthAdjust="spacingAndGlyphs" textLength="63" x="418.5" y="637.3301">Semester</text><rect fill="#FEFECE" filter="url(#f1nxttowsdpcb2)" height="33.0679" style="stroke: #A80036; stroke-width: 1.5;" width="61" x="502.5" y="51"/><text fill="#000000" font-family="sans-serif" font-size="14" lengthAdjust="spacingAndGlyphs" textLength="47" x="509.5" y="72.9659">Course</text><rect fill="#FEFECE" filter="url(#f1nxttowsdpcb2)" height="33.0679" style="stroke: #A80036; stroke-width: 1.5;" width="61" x="502.5" y="615.3642"/><text fill="#000000" font-family="sans-serif" font-size="14" lengthAdjust="spacingAndGlyphs" textLength="47" x="509.5" y="637.3301">Course</text><rect fill="#FEFECE" filter="url(#f1nxttowsdpcb2)" height="33.0679" style="stroke: #A80036; stroke-width: 1.5;" width="39" x="577.5" y="51"/><text fill="#000000" font-family="sans-serif" font-size="14" lengthAdjust="spacingAndGlyphs" textLength="25" x="584.5" y="72.9659">Tag</text><rect fill="#FEFECE" filter="url(#f1nxttowsdpcb2)" height="33.0679" style="stroke: #A80036; stroke-width: 1.5;" width="39" x="577.5" y="615.3642"/><text fill="#000000" font-family="sans-serif" font-size="14" lengthAdjust="spacingAndGlyphs" textLength="25" x="584.5" y="637.3301">Tag</text><polygon fill="#A80036" points="174.5,118.7739,184.5,122.7739,174.5,126.7739,178.5,122.7739" style="stroke: #A80036; stroke-width: 1.0;"/><line style="stroke: #A80036; stroke-width: 1.0;" x1="26.5" x2="180.5" y1="122.7739" y2="122.7739"/><text fill="#000000" font-family="sans-serif" font-size="13" lengthAdjust="spacingAndGlyphs" textLength="85" x="33.5" y="116.9649">click "Add File"</text><polygon fill="#A80036" points="323.5,150.4799,333.5,154.4799,323.5,158.4799,327.5,154.4799" style="stroke: #A80036; stroke-width: 1.0;"/><line style="stroke: #A80036; stroke-width: 1.0;" x1="186.5" x2="329.5" y1="154.4799" y2="154.4799"/><text fill="#000000" font-family="sans-serif" font-size="13" lengthAdjust="spacingAndGlyphs" textLength="49" x="193.5" y="148.6709">pickfile()</text><polygon fill="#A80036" points="197.5,182.186,187.5,186.186,197.5,190.186,193.5,186.186" style="stroke: #A80036; stroke-width: 1.0;"/><line style="stroke: #A80036; stroke-width: 1.0; stroke-dasharray: 2.0,2.0;" x1="191.5" x2="334.5" y1="186.186" y2="186.186"/><text fill="#000000" font-family="sans-serif" font-size="13" lengthAdjust="spacingAndGlyphs" textLength="100" x="203.5" y="180.377">selected file path</text><polygon fill="#A80036" points="323.5,213.892,333.5,217.892,323.5,221.892,327.5,217.892" style="stroke: #A80036; stroke-width: 1.0;"/><line style="stroke: #A80036; stroke-width: 1.0;" x1="186.5" x2="329.5" y1="217.892" y2="217.892"/><text fill="#000000" font-family="sans-serif" font-size="13" lengthAdjust="spacingAndGlyphs" textLength="67" x="193.5" y="212.083">getTag(file)</text><polygon fill="#A80036" points="197.5,245.598,187.5,249.598,197.5,253.598,193.5,249.598" style="stroke: #A80036; stroke-width: 1.0;"/><line style="stroke: #A80036; stroke-width: 1.0; stroke-dasharray: 2.0,2.0;" x1="191.5" x2="334.5" y1="249.598" y2="249.598"/><text fill="#000000" font-family="sans-serif" font-size="13" lengthAdjust="spacingAndGlyphs" textLength="57" x="203.5" y="243.789">tag name</text><polygon fill="#A80036" points="323.5,277.304,333.5,281.304,323.5,285.304,327.5,281.304" style="stroke: #A80036; stroke-width: 1.0;"/><line style="stroke: #A80036; stroke-width: 1.0;" x1="186.5" x2="329.5" y1="281.304" y2="281.304"/><text fill="#000000" font-family="sans-serif" font-size="13" lengthAdjust="spacingAndGlyphs" textLength="80" x="193.5" y="275.495">pickpath(tag)</text><polygon fill="#A80036" points="440,309.01,450,313.01,440,317.01,444,313.01" style="stroke: #A80036; stroke-width: 1.0;"/><line style="stroke: #A80036; stroke-width: 1.0;" x1="335.5" x2="446" y1="313.01" y2="313.01"/><text fill="#000000" font-family="sans-serif" font-size="13" lengthAdjust="spacingAndGlyphs" textLength="54" x="342.5" y="307.201">courses()</text><polygon fill="#A80036" points="346.5,340.716,336.5,344.716,346.5,348.716,342.5,344.716" style="stroke: #A80036; stroke-width: 1.0;"/><line style="stroke: #A80036; stroke-width: 1.0; stroke-dasharray: 2.0,2.0;" x1="340.5" x2="451" y1="344.716" y2="344.716"/><text fill="#000000" font-family="sans-serif" font-size="13" lengthAdjust="spacingAndGlyphs" textLength="81" x="352.5" y="338.907">list of courses</text><polygon fill="#A80036" points="523,372.4221,533,376.4221,523,380.4221,527,376.4221" style="stroke: #A80036; stroke-width: 1.0;"/><line style="stroke: #A80036; stroke-width: 1.0;" x1="335.5" x2="529" y1="376.4221" y2="376.4221"/><text fill="#000000" font-family="sans-serif" font-size="13" lengthAdjust="spacingAndGlyphs" textLength="36" x="342.5" y="370.6131">dept()</text><polygon fill="#A80036" points="346.5,404.1281,336.5,408.1281,346.5,412.1281,342.5,408.1281" style="stroke: #A80036; stroke-width: 1.0;"/><line style="stroke: #A80036; stroke-width: 1.0; stroke-dasharray: 2.0,2.0;" x1="340.5" x2="534" y1="408.1281" y2="408.1281"/><text fill="#000000" font-family="sans-serif" font-size="13" lengthAdjust="spacingAndGlyphs" textLength="22" x="352.5" y="402.3191">Tag</text><polygon fill="#A80036" points="587,435.8341,597,439.8341,587,443.8341,591,439.8341" style="stroke: #A80036; stroke-width: 1.0;"/><line style="stroke: #A80036; stroke-width: 1.0;" x1="335.5" x2="593" y1="439.8341" y2="439.8341"/><text fill="#000000" font-family="sans-serif" font-size="13" lengthAdjust="spacingAndGlyphs" textLength="42" x="342.5" y="434.0251">name()</text><polygon fill="#A80036" points="346.5,467.5401,336.5,471.5401,346.5,475.5401,342.5,471.5401" style="stroke: #A80036; stroke-width: 1.0;"/><line style="stroke: #A80036; stroke-width: 1.0; stroke-dasharray: 2.0,2.0;" x1="340.5" x2="598" y1="471.5401" y2="471.5401"/><text fill="#000000" font-family="sans-serif" font-size="13" lengthAdjust="spacingAndGlyphs" textLength="57" x="352.5" y="465.7311">tag name</text><polygon fill="#A80036" points="197.5,499.2461,187.5,503.2461,197.5,507.2461,193.5,503.2461" style="stroke: #A80036; stroke-width: 1.0;"/><line style="stroke: #A80036; stroke-width: 1.0; stroke-dasharray: 2.0,2.0;" x1="191.5" x2="334.5" y1="503.2461" y2="503.2461"/><text fill="#000000" font-family="sans-serif" font-size="13" lengthAdjust="spacingAndGlyphs" textLength="125" x="203.5" y="497.4371">destination directory</text><polygon fill="#A80036" points="323.5,530.9521,333.5,534.9521,323.5,538.9521,327.5,534.9521" style="stroke: #A80036; stroke-width: 1.0;"/><line style="stroke: #A80036; stroke-width: 1.0;" x1="186.5" x2="329.5" y1="534.9521" y2="534.9521"/><text fill="#000000" font-family="sans-serif" font-size="13" lengthAdjust="spacingAndGlyphs" textLength="104" x="193.5" y="529.1431">savefileas(file, dir)</text><polygon fill="#A80036" points="197.5,562.6582,187.5,566.6582,197.5,570.6582,193.5,566.6582" style="stroke: #A80036; stroke-width: 1.0;"/><line style="stroke: #A80036; stroke-width: 1.0; stroke-dasharray: 2.0,2.0;" x1="191.5" x2="334.5" y1="566.6582" y2="566.6582"/><text fill="#000000" font-family="sans-serif" font-size="13" lengthAdjust="spacingAndGlyphs" textLength="55" x="203.5" y="560.8492">file saved</text><polygon fill="#A80036" points="37.5,594.3642,27.5,598.3642,37.5,602.3642,33.5,598.3642" style="stroke: #A80036; stroke-width: 1.0;"/><line style="stroke: #A80036; stroke-width: 1.0; stroke-dasharray: 2.0,2.0;" x1="31.5" x2="185.5" y1="598.3642" y2="598.3642"/><text fill="#000000" font-family="sans-serif" font-size="13" lengthAdjust="spacingAndGlyphs" textLength="136" x="43.5" y="592.5552">show success message</text><!--MD5=[7fbf341405237bb5583840eeea0fce94]
@startuml
actor User
participant GUI
participant GuiEventHandler
participant Semester
participant Course
participant Tag

User -> GUI : click "Add File"
GUI -> GuiEventHandler : pickfile()
GuiEventHandler - -> GUI : selected file path

GUI -> GuiEventHandler : getTag(file)
GuiEventHandler - -> GUI : tag name

GUI -> GuiEventHandler : pickpath(tag)
GuiEventHandler -> Semester : courses()
Semester - -> GuiEventHandler : list of courses
GuiEventHandler -> Course : dept()
Course - -> GuiEventHandler : Tag
GuiEventHandler -> Tag : name()
Tag - -> GuiEventHandler : tag name
GuiEventHandler - -> GUI : destination directory

GUI -> GuiEventHandler : savefileas(file, dir)
GuiEventHandler - -> GUI : file saved

GUI - -> User : show success message
@enduml

PlantUML version 1.2020.02(Sun Mar 01 03:22:07 MST 2020)
(GPL source distribution)
Java Runtime: OpenJDK Runtime Environment
JVM: OpenJDK 64-Bit Server VM
Java Version: 21.0.10+7-Ubuntu-124.04
Operating System: Linux
Default Encoding: UTF-8
Language: en
Country: US
--></g></svg>